
<svg width="64" height="65" viewBox="0 0 64 65" fill="none" xmlns="http://www.w3.org/2000/svg">
  <rect y=".5" width="64" height="64" rx="32" fill="#9EFF00"/>
  <path fill-rule="evenodd" clip-rule="evenodd" d="M36.734 31.177l2.128 3.373c-1.419 1.42-2.128 1.882-2.128 1.882C35.298 37.55 33.56 38.1 31.52 38.1c-2.624 0-4.947-.905-6.968-2.715-2.021-1.811-3.032-4.385-3.032-7.722 0 0-.319.266 1.773-14.538h5.532l-1.773 13.686c0 1.846.479 3.302 1.454 4.366.975 1.066 2.27 1.598 3.918 1.598 1.703 0 3.139-.568 4.309-1.686v.088zm7.766-5.325v-12.71h-5.532v12.142c0 .196 0 .39-.018.568h5.55zm-7.376 18.94c1.1-1.118 1.72-2.556 1.897-4.313l5.23 1.793c-.46 2.574-1.63 4.686-3.475 6.301-2.517 2.201-5.46 3.302-8.83 3.302-2.872 0-5.478-.799-7.819-2.396-2.34-1.669-3.883-4.03-4.627-7.083l5.248-1.828c.39 1.881 1.277 3.39 2.66 4.508 1.383 1.119 2.978 1.687 4.787 1.687 1.986 0 3.635-.657 4.929-1.97z" fill="#1B1B1C"/>
</svg>
