<svg xmlns="http://www.w3.org/2000/svg" width="460" height="156" fill="none"><path fill="#000" fill-rule="evenodd" d="M54.08 52.565c0-14.794 4.955-27.145 14.864-37.054C78.854 5.6 91.204.647 105.998.647c14.933 0 27.355 4.955 37.263 14.864 9.77 9.77 14.655 22.12 14.655 37.054 0 14.933-4.885 27.284-14.655 37.054-9.908 9.909-22.33 14.863-37.263 14.863-14.794 0-27.145-4.954-37.054-14.863-9.909-9.91-14.863-22.26-14.863-37.054Zm73.69-23.028c-5.583-5.862-12.84-8.793-21.772-8.793-8.932 0-16.19 2.931-21.772 8.793-5.722 6.14-8.583 13.747-8.583 22.818 0 9.072 2.861 16.678 8.583 22.819 5.583 6.001 12.84 9.002 21.772 9.002 9.072 0 16.399-3 21.981-9.002 5.583-6.001 8.374-13.608 8.374-22.819 0-9.071-2.861-16.677-8.583-22.818ZM46.475 1.903c4.465 0 8.792.768 12.979 2.303l-4.815 21.981c-4.187-1.675-8.374-2.512-12.56-2.512-6.142 0-11.096 2.024-14.725 6.071-3.698 4.048-5.512 9.979-5.512 17.794v54.849H0V3.159h21.353v12.142C26.098 6.37 34.473 1.903 46.474 1.903ZM166.498 3.16v99.23h21.772v-51.29c0-9.071 2.303-16.259 6.978-21.562 4.676-5.304 10.677-7.955 17.934-7.955 6.141 0 11.026 2.023 14.654 6.07 3.629 4.048 5.443 9.91 5.443 17.586v57.151h21.772V37.701c0-11.723-3.489-20.864-10.467-27.424-6.839-6.42-15.282-9.63-25.331-9.63-13.956 0-24.423 5.583-31.401 16.748V3.159h-21.354Zm102.928 99.23V3.159h21.353v14.236C297.758 6.23 308.225.647 322.181.647c10.049 0 18.492 3.21 25.331 9.63 6.978 6.56 10.467 15.7 10.467 27.424v64.688h-21.772V45.238c0-7.676-1.814-13.538-5.443-17.585-3.628-4.048-8.513-6.071-14.654-6.071-7.257 0-13.258 2.651-17.934 7.955-4.675 5.303-6.978 12.49-6.978 21.562v51.29h-21.772Zm189.178-99.23L460 53.123h-21.842c.07-.698.07-1.465.07-2.233l-1.395-47.73h21.771Zm-29.169 70.898 8.374 13.259c-5.582 5.582-8.374 7.397-8.374 7.397-5.652 4.396-12.49 6.559-20.515 6.559-10.328 0-19.469-3.559-27.424-10.676-7.956-7.118-11.933-17.236-11.933-30.355l2.093-57.151h21.772l-2.093 53.801c0 7.258 1.884 12.98 5.722 17.167 3.838 4.186 8.932 6.28 15.421 6.28 6.7 0 12.352-2.233 16.957-6.63v.35Zm1.536 53.523c4.326-4.396 6.768-10.049 7.466-16.957l20.516 6.978c-1.814 10.119-6.42 18.423-13.677 24.773-9.909 8.653-21.493 12.979-34.751 12.979-11.305 0-21.563-3.14-30.774-9.421-9.211-6.559-15.282-15.84-18.213-27.842l20.725-7.118c1.535 7.397 5.024 13.328 10.467 17.724 5.443 4.397 11.724 6.63 18.841 6.63 7.816 0 14.306-2.582 19.4-7.746Z" clip-rule="evenodd"/></svg>