
<svg xmlns="http://www.w3.org/2000/svg" width="88" height="92" fill="none"><path fill="currentColor" d="M1.024 50.686C2.229 48.52 5.15 47.7 7.305 48.907L27.952 60.05c2.225 1.199 4.484-1.56 2.875-3.5L4.442 24.66c-1.812-2.058-1.47-4.946.366-6.56 1.941-1.71 4.874-1.457 6.517.41l23.594 26.238c1.826 2.035 5.065-.268 3.732-2.67L19.245 7.805a4.613 4.613 0 0 1 1.771-6.278A4.62 4.62 0 0 1 27.297 3.3l19.415 34.29c1.34 2.397 5.025.844 4.22-1.805L46.09 8.494c-.728-2.38.657-5.027 3.063-5.764a4.605 4.605 0 0 1 5.762 3.049l12.73 40.845c.777 2.004 3.607 1.949 4.33-.047l6.162-17.227c.833-2.528 3.463-3.772 5.845-2.984a4.623 4.623 0 0 1 2.936 5.836c-5.46 40.15-3.152 46.006-13.315 51.69l-14.098 7.885c-4.59 0-20.154 1.785-28.836-13.74-4.181-7.475-9.072-8.996-27.745-21.005-2.514-1.413-3.08-4.231-1.9-6.346Z"/></svg>