<svg xmlns="http://www.w3.org/2000/svg" width="88" height="98" fill="none"><path fill="#000" d="M86.767 53.848c-1.205-2.165-4.126-2.984-6.281-1.779L59.839 63.213c-2.225 1.198-4.484-1.561-2.875-3.501l26.385-31.889c1.812-2.059 1.47-4.947-.365-6.56-1.942-1.71-4.875-1.458-6.518.41L52.872 47.91c-1.826 2.035-5.065-.268-3.732-2.669L70.546 6.967A4.613 4.613 0 0 0 68.775.688a4.62 4.62 0 0 0-6.281 1.775l-21.415 38.29c-1.34 2.398-5.025.844-4.22-1.804l5.843-30.293c.729-2.38-.657-5.026-3.063-5.764a4.605 4.605 0 0 0-5.762 3.05l-13.73 43.845c-.777 2.003-3.607 1.948-4.33-.048L9.654 32.513c-.833-2.529-3.463-3.772-5.845-2.984a4.623 4.623 0 0 0-2.936 5.835c5.46 40.15 4.152 46.007 14.315 51.69l14.098 7.885c10.993 6.148 20.154 1.785 28.836-13.739 4.181-7.476 8.072-8.996 26.745-21.006 2.514-1.412 3.08-4.231 1.9-6.346Z"/></svg>